<mxfile host="app.diagrams.net" agent="Mozilla/5.0 (Windows NT 10.0; Win64; x64) AppleWebKit/537.36 (KHTML, like Gecko) Chrome/134.0.0.0 Safari/537.36 Edg/134.0.0.0" version="26.1.3">
  <diagram name="第 1 页" id="4taPhYK0Ezkhr-tzlwmm">
    <mxGraphModel dx="599" dy="781" grid="1" gridSize="10" guides="1" tooltips="1" connect="1" arrows="1" fold="1" page="1" pageScale="1" pageWidth="827" pageHeight="1169" background="#ffffff" math="0" shadow="0">
      <root>
        <mxCell id="0" />
        <mxCell id="1" parent="0" />
        <mxCell id="wN9m2C8zXZP7efadYnGl-1" value="" style="endArrow=none;dashed=1;html=1;rounded=0;entryX=0.5;entryY=1;entryDx=0;entryDy=0;" edge="1" parent="1" source="wN9m2C8zXZP7efadYnGl-49">
          <mxGeometry width="50" height="50" relative="1" as="geometry">
            <mxPoint x="1639.5" y="1361" as="sourcePoint" />
            <mxPoint x="1640.5" y="81" as="targetPoint" />
          </mxGeometry>
        </mxCell>
        <mxCell id="wN9m2C8zXZP7efadYnGl-2" value="" style="endArrow=none;dashed=1;html=1;rounded=0;entryX=0.5;entryY=1;entryDx=0;entryDy=0;" edge="1" parent="1" source="wN9m2C8zXZP7efadYnGl-33" target="wN9m2C8zXZP7efadYnGl-6">
          <mxGeometry width="50" height="50" relative="1" as="geometry">
            <mxPoint x="1480.5" y="1161" as="sourcePoint" />
            <mxPoint x="1330.5" y="91" as="targetPoint" />
          </mxGeometry>
        </mxCell>
        <mxCell id="wN9m2C8zXZP7efadYnGl-3" value="" style="endArrow=none;dashed=1;html=1;rounded=0;entryX=0.5;entryY=1;entryDx=0;entryDy=0;" edge="1" parent="1" target="wN9m2C8zXZP7efadYnGl-5">
          <mxGeometry width="50" height="50" relative="1" as="geometry">
            <mxPoint x="1320.5" y="1322" as="sourcePoint" />
            <mxPoint x="1680.5" y="171" as="targetPoint" />
          </mxGeometry>
        </mxCell>
        <mxCell id="wN9m2C8zXZP7efadYnGl-4" value="Pairing" style="text;html=1;align=center;verticalAlign=middle;whiteSpace=wrap;rounded=0;fontSize=16;fontStyle=1" vertex="1" parent="1">
          <mxGeometry x="1240.5" y="11" width="119" height="20" as="geometry" />
        </mxCell>
        <mxCell id="wN9m2C8zXZP7efadYnGl-5" value="Smart Phone APP/Device" style="rounded=0;whiteSpace=wrap;html=1;" vertex="1" parent="1">
          <mxGeometry x="1280.5" y="41" width="80" height="40" as="geometry" />
        </mxCell>
        <mxCell id="wN9m2C8zXZP7efadYnGl-6" value="Vehicle OEM Server" style="rounded=0;whiteSpace=wrap;html=1;" vertex="1" parent="1">
          <mxGeometry x="1440.5" y="41" width="80" height="40" as="geometry" />
        </mxCell>
        <mxCell id="wN9m2C8zXZP7efadYnGl-7" value="Key Tracking Server" style="rounded=0;whiteSpace=wrap;html=1;" vertex="1" parent="1">
          <mxGeometry x="1600.5" y="41" width="80" height="40" as="geometry" />
        </mxCell>
        <mxCell id="wN9m2C8zXZP7efadYnGl-8" value="Device OEM Server" style="rounded=0;whiteSpace=wrap;html=1;" vertex="1" parent="1">
          <mxGeometry x="1760.5" y="41" width="80" height="40" as="geometry" />
        </mxCell>
        <mxCell id="wN9m2C8zXZP7efadYnGl-9" value="Trigger pairing &lt;br&gt;process" style="html=1;verticalAlign=bottom;startArrow=oval;endArrow=block;startSize=8;edgeStyle=elbowEdgeStyle;elbow=vertical;curved=0;rounded=0;" edge="1" parent="1">
          <mxGeometry x="-0.1353" relative="1" as="geometry">
            <mxPoint x="1248.5" y="166" as="sourcePoint" />
            <mxPoint x="1314.5" y="166" as="targetPoint" />
            <mxPoint as="offset" />
          </mxGeometry>
        </mxCell>
        <mxCell id="wN9m2C8zXZP7efadYnGl-10" value="" style="endArrow=none;dashed=1;html=1;rounded=0;entryX=0.5;entryY=1;entryDx=0;entryDy=0;" edge="1" parent="1" source="wN9m2C8zXZP7efadYnGl-38">
          <mxGeometry width="50" height="50" relative="1" as="geometry">
            <mxPoint x="1799.5" y="1361" as="sourcePoint" />
            <mxPoint x="1800.5" y="81" as="targetPoint" />
          </mxGeometry>
        </mxCell>
        <mxCell id="wN9m2C8zXZP7efadYnGl-11" value="FDC_DKC" style="rounded=0;whiteSpace=wrap;html=1;" vertex="1" parent="1">
          <mxGeometry x="1920.5" y="41" width="80" height="40" as="geometry" />
        </mxCell>
        <mxCell id="wN9m2C8zXZP7efadYnGl-12" value="" style="endArrow=none;dashed=1;html=1;rounded=0;entryX=0.5;entryY=1;entryDx=0;entryDy=0;" edge="1" parent="1" source="wN9m2C8zXZP7efadYnGl-16">
          <mxGeometry width="50" height="50" relative="1" as="geometry">
            <mxPoint x="1959.5" y="621" as="sourcePoint" />
            <mxPoint x="1960.5" y="81" as="targetPoint" />
          </mxGeometry>
        </mxCell>
        <mxCell id="wN9m2C8zXZP7efadYnGl-13" value="IVI" style="rounded=0;whiteSpace=wrap;html=1;" vertex="1" parent="1">
          <mxGeometry x="2080.5" y="41" width="80" height="40" as="geometry" />
        </mxCell>
        <mxCell id="wN9m2C8zXZP7efadYnGl-14" value="" style="endArrow=none;dashed=1;html=1;rounded=0;entryX=0.5;entryY=1;entryDx=0;entryDy=0;" edge="1" parent="1" source="wN9m2C8zXZP7efadYnGl-92">
          <mxGeometry width="50" height="50" relative="1" as="geometry">
            <mxPoint x="2119.5" y="1322" as="sourcePoint" />
            <mxPoint x="2120.5" y="81" as="targetPoint" />
          </mxGeometry>
        </mxCell>
        <mxCell id="wN9m2C8zXZP7efadYnGl-15" value="Sending&amp;nbsp;&lt;div&gt;Pairing Request (BLE)&lt;/div&gt;" style="html=1;verticalAlign=bottom;endArrow=block;edgeStyle=elbowEdgeStyle;elbow=vertical;curved=0;rounded=0;exitX=1.4;exitY=0.027;exitDx=0;exitDy=0;exitPerimeter=0;" edge="1" parent="1" target="wN9m2C8zXZP7efadYnGl-92">
          <mxGeometry x="0.0141" relative="1" as="geometry">
            <mxPoint x="1964.5" y="179.577" as="sourcePoint" />
            <Array as="points">
              <mxPoint x="2033.5" y="179.5" />
            </Array>
            <mxPoint x="2115.5" y="194.5" as="targetPoint" />
            <mxPoint as="offset" />
          </mxGeometry>
        </mxCell>
        <mxCell id="wN9m2C8zXZP7efadYnGl-16" value="" style="html=1;points=[];perimeter=orthogonalPerimeter;outlineConnect=0;targetShapes=umlLifeline;portConstraint=eastwest;newEdgeStyle={&quot;edgeStyle&quot;:&quot;elbowEdgeStyle&quot;,&quot;elbow&quot;:&quot;vertical&quot;,&quot;curved&quot;:0,&quot;rounded&quot;:0};" vertex="1" parent="1">
          <mxGeometry x="1955.5" y="100" width="10" height="1172" as="geometry" />
        </mxCell>
        <mxCell id="wN9m2C8zXZP7efadYnGl-17" value="" style="endArrow=classic;html=1;rounded=0;edgeStyle=elbowEdgeStyle;" edge="1" parent="1">
          <mxGeometry width="50" height="50" relative="1" as="geometry">
            <mxPoint x="2125.5" y="179" as="sourcePoint" />
            <mxPoint x="2125.5" y="199" as="targetPoint" />
            <Array as="points">
              <mxPoint x="2149.5" y="189" />
            </Array>
          </mxGeometry>
        </mxCell>
        <mxCell id="wN9m2C8zXZP7efadYnGl-18" value="&lt;div&gt;&lt;span style=&quot;white-space: pre;&quot;&gt;&#x9;&lt;/span&gt;Optional&lt;/div&gt;Check pre-condition" style="text;html=1;align=left;verticalAlign=middle;whiteSpace=wrap;rounded=0;" vertex="1" parent="1">
          <mxGeometry x="2149.5" y="179.5" width="111" height="20" as="geometry" />
        </mxCell>
        <mxCell id="wN9m2C8zXZP7efadYnGl-19" value="Feedback VIN" style="html=1;verticalAlign=bottom;endArrow=block;edgeStyle=elbowEdgeStyle;elbow=vertical;curved=0;rounded=0;" edge="1" parent="1" target="wN9m2C8zXZP7efadYnGl-16">
          <mxGeometry x="-0.0004" relative="1" as="geometry">
            <mxPoint x="2124.5" y="199" as="sourcePoint" />
            <Array as="points" />
            <mxPoint x="1999.5" y="199" as="targetPoint" />
            <mxPoint as="offset" />
          </mxGeometry>
        </mxCell>
        <mxCell id="wN9m2C8zXZP7efadYnGl-20" value="" style="html=1;points=[];perimeter=orthogonalPerimeter;outlineConnect=0;targetShapes=umlLifeline;portConstraint=eastwest;newEdgeStyle={&quot;edgeStyle&quot;:&quot;elbowEdgeStyle&quot;,&quot;elbow&quot;:&quot;vertical&quot;,&quot;curved&quot;:0,&quot;rounded&quot;:0};" vertex="1" parent="1">
          <mxGeometry x="1315.5" y="100" width="10" height="1202" as="geometry" />
        </mxCell>
        <mxCell id="wN9m2C8zXZP7efadYnGl-21" value="" style="endArrow=classic;html=1;rounded=0;edgeStyle=elbowEdgeStyle;" edge="1" parent="1">
          <mxGeometry width="50" height="50" relative="1" as="geometry">
            <mxPoint x="1327.5" y="893" as="sourcePoint" />
            <mxPoint x="1327.5" y="913" as="targetPoint" />
            <Array as="points">
              <mxPoint x="1351.5" y="903" />
            </Array>
          </mxGeometry>
        </mxCell>
        <mxCell id="wN9m2C8zXZP7efadYnGl-22" value="Save Digital Key" style="text;html=1;align=left;verticalAlign=middle;whiteSpace=wrap;rounded=0;" vertex="1" parent="1">
          <mxGeometry x="1354.5" y="893" width="111" height="20" as="geometry" />
        </mxCell>
        <mxCell id="wN9m2C8zXZP7efadYnGl-23" value="Trigger Validation (BLE)" style="html=1;verticalAlign=bottom;endArrow=block;edgeStyle=elbowEdgeStyle;elbow=vertical;curved=0;rounded=0;entryX=0.5;entryY=0.162;entryDx=0;entryDy=0;entryPerimeter=0;" edge="1" parent="1" target="wN9m2C8zXZP7efadYnGl-105">
          <mxGeometry x="0.0141" relative="1" as="geometry">
            <mxPoint x="1329.5" y="993" as="sourcePoint" />
            <Array as="points">
              <mxPoint x="1384.5" y="993" />
            </Array>
            <mxPoint x="2100" y="993" as="targetPoint" />
            <mxPoint as="offset" />
          </mxGeometry>
        </mxCell>
        <mxCell id="wN9m2C8zXZP7efadYnGl-24" value="Change Page" style="html=1;verticalAlign=bottom;endArrow=block;edgeStyle=elbowEdgeStyle;elbow=vertical;curved=0;rounded=0;" edge="1" parent="1" target="wN9m2C8zXZP7efadYnGl-105">
          <mxGeometry x="0.0124" relative="1" as="geometry">
            <mxPoint x="1965.5" y="1018.2" as="sourcePoint" />
            <Array as="points" />
            <mxPoint x="2100" y="1020" as="targetPoint" />
            <mxPoint as="offset" />
          </mxGeometry>
        </mxCell>
        <mxCell id="wN9m2C8zXZP7efadYnGl-25" value="Activate&lt;div&gt;Process&lt;/div&gt;" style="html=1;verticalAlign=bottom;startArrow=oval;endArrow=block;startSize=8;edgeStyle=elbowEdgeStyle;elbow=vertical;curved=0;rounded=0;" edge="1" parent="1">
          <mxGeometry x="-0.1392" relative="1" as="geometry">
            <mxPoint x="2200.5" y="1034" as="sourcePoint" />
            <mxPoint x="2125" y="1034.1666666666667" as="targetPoint" />
            <Array as="points" />
            <mxPoint as="offset" />
          </mxGeometry>
        </mxCell>
        <mxCell id="wN9m2C8zXZP7efadYnGl-26" value="Response result" style="html=1;verticalAlign=bottom;endArrow=block;edgeStyle=elbowEdgeStyle;elbow=vertical;curved=0;rounded=0;exitX=0.5;exitY=0.75;exitDx=0;exitDy=0;exitPerimeter=0;" edge="1" parent="1">
          <mxGeometry x="-0.0004" relative="1" as="geometry">
            <mxPoint x="2120" y="1042" as="sourcePoint" />
            <Array as="points" />
            <mxPoint x="1965.5" y="1041.8333333333335" as="targetPoint" />
            <mxPoint as="offset" />
          </mxGeometry>
        </mxCell>
        <mxCell id="wN9m2C8zXZP7efadYnGl-27" value="" style="endArrow=classic;html=1;rounded=0;edgeStyle=elbowEdgeStyle;" edge="1" parent="1">
          <mxGeometry width="50" height="50" relative="1" as="geometry">
            <mxPoint x="1327.5" y="933" as="sourcePoint" />
            <mxPoint x="1327.5" y="953" as="targetPoint" />
            <Array as="points">
              <mxPoint x="1351.5" y="943" />
            </Array>
          </mxGeometry>
        </mxCell>
        <mxCell id="wN9m2C8zXZP7efadYnGl-28" value="Change Page to Validation" style="text;html=1;align=left;verticalAlign=middle;whiteSpace=wrap;rounded=0;" vertex="1" parent="1">
          <mxGeometry x="1354.5" y="934" width="111" height="20" as="geometry" />
        </mxCell>
        <mxCell id="wN9m2C8zXZP7efadYnGl-29" value="" style="endArrow=classic;html=1;rounded=0;edgeStyle=elbowEdgeStyle;" edge="1" parent="1">
          <mxGeometry width="50" height="50" relative="1" as="geometry">
            <mxPoint x="1325.5" y="1273" as="sourcePoint" />
            <mxPoint x="1325.5" y="1293" as="targetPoint" />
            <Array as="points">
              <mxPoint x="1349.5" y="1283" />
            </Array>
          </mxGeometry>
        </mxCell>
        <mxCell id="wN9m2C8zXZP7efadYnGl-30" value="Change Page to Success or Fail(****)" style="text;html=1;align=left;verticalAlign=middle;whiteSpace=wrap;rounded=0;" vertex="1" parent="1">
          <mxGeometry x="1349.5" y="1273" width="111" height="20" as="geometry" />
        </mxCell>
        <mxCell id="wN9m2C8zXZP7efadYnGl-31" value="Sending Spark2+ parameter (API)(*)" style="html=1;verticalAlign=bottom;endArrow=block;edgeStyle=elbowEdgeStyle;elbow=vertical;curved=0;rounded=0;" edge="1" parent="1">
          <mxGeometry x="0.0141" relative="1" as="geometry">
            <mxPoint x="1485.5" y="104" as="sourcePoint" />
            <Array as="points">
              <mxPoint x="1710.5" y="104" />
            </Array>
            <mxPoint x="1955.5" y="104" as="targetPoint" />
            <mxPoint as="offset" />
          </mxGeometry>
        </mxCell>
        <mxCell id="wN9m2C8zXZP7efadYnGl-32" value="" style="endArrow=none;dashed=1;html=1;rounded=0;entryX=0.5;entryY=1;entryDx=0;entryDy=0;" edge="1" parent="1" target="wN9m2C8zXZP7efadYnGl-33">
          <mxGeometry width="50" height="50" relative="1" as="geometry">
            <mxPoint x="1479.5" y="1322" as="sourcePoint" />
            <mxPoint x="1480.5" y="81" as="targetPoint" />
          </mxGeometry>
        </mxCell>
        <mxCell id="wN9m2C8zXZP7efadYnGl-33" value="" style="html=1;points=[];perimeter=orthogonalPerimeter;outlineConnect=0;targetShapes=umlLifeline;portConstraint=eastwest;newEdgeStyle={&quot;edgeStyle&quot;:&quot;elbowEdgeStyle&quot;,&quot;elbow&quot;:&quot;vertical&quot;,&quot;curved&quot;:0,&quot;rounded&quot;:0};" vertex="1" parent="1">
          <mxGeometry x="1475.5" y="100" width="10" height="132" as="geometry" />
        </mxCell>
        <mxCell id="wN9m2C8zXZP7efadYnGl-34" value="Place on the&amp;nbsp;&lt;div&gt;NFC reader&lt;/div&gt;" style="html=1;verticalAlign=bottom;startArrow=oval;endArrow=block;startSize=8;edgeStyle=elbowEdgeStyle;elbow=vertical;curved=0;rounded=0;" edge="1" parent="1">
          <mxGeometry x="-0.1353" relative="1" as="geometry">
            <mxPoint x="1248.5" y="264" as="sourcePoint" />
            <mxPoint x="1314.5" y="264" as="targetPoint" />
            <mxPoint as="offset" />
          </mxGeometry>
        </mxCell>
        <mxCell id="wN9m2C8zXZP7efadYnGl-35" value="Spark2+ connection(Include applet&amp;amp;framework AID, by NFC)" style="html=1;verticalAlign=bottom;endArrow=block;edgeStyle=elbowEdgeStyle;elbow=vertical;curved=0;rounded=0;" edge="1" parent="1">
          <mxGeometry x="-0.0004" relative="1" as="geometry">
            <mxPoint x="1955.5" y="271" as="sourcePoint" />
            <Array as="points">
              <mxPoint x="1470.5" y="271" />
            </Array>
            <mxPoint x="1325.5" y="271" as="targetPoint" />
            <mxPoint as="offset" />
          </mxGeometry>
        </mxCell>
        <mxCell id="wN9m2C8zXZP7efadYnGl-36" value="Spark2+ connection response success(NFC)" style="html=1;verticalAlign=bottom;endArrow=block;edgeStyle=elbowEdgeStyle;elbow=vertical;curved=0;rounded=0;" edge="1" parent="1">
          <mxGeometry x="0.0127" relative="1" as="geometry">
            <mxPoint x="1325.5" y="290.5" as="sourcePoint" />
            <Array as="points">
              <mxPoint x="1710.5" y="290.5" />
            </Array>
            <mxPoint x="1955.5" y="290.5" as="targetPoint" />
            <mxPoint as="offset" />
          </mxGeometry>
        </mxCell>
        <mxCell id="wN9m2C8zXZP7efadYnGl-37" value="" style="endArrow=none;dashed=1;html=1;rounded=0;entryX=0.5;entryY=1;entryDx=0;entryDy=0;" edge="1" parent="1" source="wN9m2C8zXZP7efadYnGl-45" target="wN9m2C8zXZP7efadYnGl-38">
          <mxGeometry width="50" height="50" relative="1" as="geometry">
            <mxPoint x="1799.5" y="1361" as="sourcePoint" />
            <mxPoint x="1800.5" y="81" as="targetPoint" />
          </mxGeometry>
        </mxCell>
        <mxCell id="wN9m2C8zXZP7efadYnGl-38" value="" style="html=1;points=[];perimeter=orthogonalPerimeter;outlineConnect=0;targetShapes=umlLifeline;portConstraint=eastwest;newEdgeStyle={&quot;edgeStyle&quot;:&quot;elbowEdgeStyle&quot;,&quot;elbow&quot;:&quot;vertical&quot;,&quot;curved&quot;:0,&quot;rounded&quot;:0};" vertex="1" parent="1">
          <mxGeometry x="1794.5" y="318" width="10" height="40" as="geometry" />
        </mxCell>
        <mxCell id="wN9m2C8zXZP7efadYnGl-39" value="Sending Create&amp;nbsp;&lt;div&gt;Digital Key request(API)(**)&lt;/div&gt;" style="html=1;verticalAlign=bottom;endArrow=block;edgeStyle=elbowEdgeStyle;elbow=vertical;curved=0;rounded=0;" edge="1" parent="1">
          <mxGeometry x="-0.0004" relative="1" as="geometry">
            <mxPoint x="1955.5" y="327" as="sourcePoint" />
            <Array as="points" />
            <mxPoint x="1805.5" y="327" as="targetPoint" />
            <mxPoint as="offset" />
          </mxGeometry>
        </mxCell>
        <mxCell id="wN9m2C8zXZP7efadYnGl-40" value="Response result" style="html=1;verticalAlign=bottom;endArrow=block;edgeStyle=elbowEdgeStyle;elbow=vertical;curved=0;rounded=0;" edge="1" parent="1">
          <mxGeometry x="0.0124" relative="1" as="geometry">
            <mxPoint x="1804.5" y="348" as="sourcePoint" />
            <Array as="points" />
            <mxPoint x="1954.5" y="348" as="targetPoint" />
            <mxPoint as="offset" />
          </mxGeometry>
        </mxCell>
        <mxCell id="wN9m2C8zXZP7efadYnGl-41" value="NFC Reset&lt;div&gt;New polling&lt;/div&gt;" style="html=1;verticalAlign=bottom;startArrow=oval;endArrow=block;startSize=8;edgeStyle=elbowEdgeStyle;elbow=vertical;curved=0;rounded=0;" edge="1" parent="1">
          <mxGeometry x="-0.1353" relative="1" as="geometry">
            <mxPoint x="1248.5" y="375.5" as="sourcePoint" />
            <mxPoint x="1314.5" y="375.5" as="targetPoint" />
            <mxPoint as="offset" />
          </mxGeometry>
        </mxCell>
        <mxCell id="wN9m2C8zXZP7efadYnGl-42" value="New polling(Include applet&amp;amp;framework AID, by NFC)" style="html=1;verticalAlign=bottom;endArrow=block;edgeStyle=elbowEdgeStyle;elbow=vertical;curved=0;rounded=0;" edge="1" parent="1">
          <mxGeometry x="-0.0004" relative="1" as="geometry">
            <mxPoint x="1955.5" y="389" as="sourcePoint" />
            <Array as="points">
              <mxPoint x="1470.5" y="389" />
            </Array>
            <mxPoint x="1325.5" y="389" as="targetPoint" />
            <mxPoint as="offset" />
          </mxGeometry>
        </mxCell>
        <mxCell id="wN9m2C8zXZP7efadYnGl-43" value="New polling response success(NFC)" style="html=1;verticalAlign=bottom;endArrow=block;edgeStyle=elbowEdgeStyle;elbow=vertical;curved=0;rounded=0;" edge="1" parent="1">
          <mxGeometry x="0.0141" relative="1" as="geometry">
            <mxPoint x="1325.5" y="411" as="sourcePoint" />
            <Array as="points">
              <mxPoint x="1710.5" y="411" />
            </Array>
            <mxPoint x="1955.5" y="411" as="targetPoint" />
            <mxPoint as="offset" />
          </mxGeometry>
        </mxCell>
        <mxCell id="wN9m2C8zXZP7efadYnGl-44" value="" style="endArrow=none;dashed=1;html=1;rounded=0;entryX=0.5;entryY=1;entryDx=0;entryDy=0;" edge="1" parent="1" target="wN9m2C8zXZP7efadYnGl-45">
          <mxGeometry width="50" height="50" relative="1" as="geometry">
            <mxPoint x="1799.5" y="601" as="sourcePoint" />
            <mxPoint x="1799.5" y="381" as="targetPoint" />
          </mxGeometry>
        </mxCell>
        <mxCell id="wN9m2C8zXZP7efadYnGl-45" value="" style="html=1;points=[];perimeter=orthogonalPerimeter;outlineConnect=0;targetShapes=umlLifeline;portConstraint=eastwest;newEdgeStyle={&quot;edgeStyle&quot;:&quot;elbowEdgeStyle&quot;,&quot;elbow&quot;:&quot;vertical&quot;,&quot;curved&quot;:0,&quot;rounded&quot;:0};" vertex="1" parent="1">
          <mxGeometry x="1794.5" y="440" width="10" height="102" as="geometry" />
        </mxCell>
        <mxCell id="wN9m2C8zXZP7efadYnGl-46" value="Sending Get&amp;nbsp;&lt;div&gt;Digital Key request(API)(***)&lt;/div&gt;" style="html=1;verticalAlign=bottom;endArrow=block;edgeStyle=elbowEdgeStyle;elbow=vertical;curved=0;rounded=0;" edge="1" parent="1">
          <mxGeometry x="-0.0004" relative="1" as="geometry">
            <mxPoint x="1954.5" y="449" as="sourcePoint" />
            <Array as="points" />
            <mxPoint x="1804.5" y="449" as="targetPoint" />
            <mxPoint as="offset" />
          </mxGeometry>
        </mxCell>
        <mxCell id="wN9m2C8zXZP7efadYnGl-47" value="Response result" style="html=1;verticalAlign=bottom;endArrow=block;edgeStyle=elbowEdgeStyle;elbow=vertical;curved=0;rounded=0;" edge="1" parent="1">
          <mxGeometry x="0.0124" relative="1" as="geometry">
            <mxPoint x="1805.5" y="470.5" as="sourcePoint" />
            <Array as="points" />
            <mxPoint x="1955.5" y="470.5" as="targetPoint" />
            <mxPoint as="offset" />
          </mxGeometry>
        </mxCell>
        <mxCell id="wN9m2C8zXZP7efadYnGl-48" value="" style="endArrow=none;dashed=1;html=1;rounded=0;entryX=0.5;entryY=1;entryDx=0;entryDy=0;" edge="1" parent="1" source="wN9m2C8zXZP7efadYnGl-63" target="wN9m2C8zXZP7efadYnGl-49">
          <mxGeometry width="50" height="50" relative="1" as="geometry">
            <mxPoint x="1639.5" y="1561" as="sourcePoint" />
            <mxPoint x="1640.5" y="81" as="targetPoint" />
          </mxGeometry>
        </mxCell>
        <mxCell id="wN9m2C8zXZP7efadYnGl-49" value="" style="html=1;points=[];perimeter=orthogonalPerimeter;outlineConnect=0;targetShapes=umlLifeline;portConstraint=eastwest;newEdgeStyle={&quot;edgeStyle&quot;:&quot;elbowEdgeStyle&quot;,&quot;elbow&quot;:&quot;vertical&quot;,&quot;curved&quot;:0,&quot;rounded&quot;:0};" vertex="1" parent="1">
          <mxGeometry x="1634.5" y="498" width="10" height="37" as="geometry" />
        </mxCell>
        <mxCell id="wN9m2C8zXZP7efadYnGl-50" value="Sending pairing log(API)" style="html=1;verticalAlign=bottom;endArrow=block;edgeStyle=elbowEdgeStyle;elbow=vertical;curved=0;rounded=0;" edge="1" parent="1" source="wN9m2C8zXZP7efadYnGl-45">
          <mxGeometry x="-0.0004" relative="1" as="geometry">
            <mxPoint x="1789.5" y="512" as="sourcePoint" />
            <Array as="points" />
            <mxPoint x="1644.5" y="510" as="targetPoint" />
            <mxPoint as="offset" />
          </mxGeometry>
        </mxCell>
        <mxCell id="wN9m2C8zXZP7efadYnGl-51" value="" style="endArrow=none;dashed=1;html=1;rounded=0;" edge="1" parent="1">
          <mxGeometry width="50" height="50" relative="1" as="geometry">
            <mxPoint x="1800.5" y="1143" as="sourcePoint" />
            <mxPoint x="1800.5" y="941" as="targetPoint" />
          </mxGeometry>
        </mxCell>
        <mxCell id="wN9m2C8zXZP7efadYnGl-52" value="NFC Reset&lt;div&gt;New polling&lt;/div&gt;" style="html=1;verticalAlign=bottom;startArrow=oval;endArrow=block;startSize=8;edgeStyle=elbowEdgeStyle;elbow=vertical;curved=0;rounded=0;" edge="1" parent="1">
          <mxGeometry x="-0.1353" relative="1" as="geometry">
            <mxPoint x="1248.5" y="548" as="sourcePoint" />
            <mxPoint x="1314.5" y="548" as="targetPoint" />
            <mxPoint as="offset" />
          </mxGeometry>
        </mxCell>
        <mxCell id="wN9m2C8zXZP7efadYnGl-53" value="New polling(Include Instance AID, by NFC)" style="html=1;verticalAlign=bottom;endArrow=block;edgeStyle=elbowEdgeStyle;elbow=vertical;curved=0;rounded=0;" edge="1" parent="1">
          <mxGeometry x="-0.0004" relative="1" as="geometry">
            <mxPoint x="1955.5" y="573" as="sourcePoint" />
            <Array as="points">
              <mxPoint x="1470.5" y="573" />
            </Array>
            <mxPoint x="1325.5" y="573" as="targetPoint" />
            <mxPoint as="offset" />
          </mxGeometry>
        </mxCell>
        <mxCell id="wN9m2C8zXZP7efadYnGl-54" value="New polling response success(NFC)" style="html=1;verticalAlign=bottom;endArrow=block;edgeStyle=elbowEdgeStyle;elbow=vertical;curved=0;rounded=0;" edge="1" parent="1">
          <mxGeometry x="0.0141" relative="1" as="geometry">
            <mxPoint x="1325.5" y="592" as="sourcePoint" />
            <Array as="points">
              <mxPoint x="1710.5" y="592" />
            </Array>
            <mxPoint x="1955.5" y="592" as="targetPoint" />
            <mxPoint as="offset" />
          </mxGeometry>
        </mxCell>
        <mxCell id="wN9m2C8zXZP7efadYnGl-55" value="" style="endArrow=classic;html=1;rounded=0;edgeStyle=elbowEdgeStyle;" edge="1" parent="1">
          <mxGeometry width="50" height="50" relative="1" as="geometry">
            <mxPoint x="1794.5" y="327" as="sourcePoint" />
            <mxPoint x="1794.5" y="347" as="targetPoint" />
            <Array as="points">
              <mxPoint x="1768.5" y="337" />
            </Array>
          </mxGeometry>
        </mxCell>
        <mxCell id="wN9m2C8zXZP7efadYnGl-56" value="" style="endArrow=classic;html=1;rounded=0;edgeStyle=elbowEdgeStyle;" edge="1" parent="1">
          <mxGeometry width="50" height="50" relative="1" as="geometry">
            <mxPoint x="1794.5" y="449" as="sourcePoint" />
            <mxPoint x="1794.5" y="469" as="targetPoint" />
            <Array as="points">
              <mxPoint x="1768.5" y="459" />
            </Array>
          </mxGeometry>
        </mxCell>
        <mxCell id="wN9m2C8zXZP7efadYnGl-57" value="If fail back to **, retry over seven times, back to *." style="text;html=1;align=left;verticalAlign=middle;whiteSpace=wrap;rounded=0;" vertex="1" parent="1">
          <mxGeometry x="1674.5" y="327" width="110" height="20" as="geometry" />
        </mxCell>
        <mxCell id="wN9m2C8zXZP7efadYnGl-58" value="If fail back to ***, retry over seven times, back to * and delete key." style="text;html=1;align=left;verticalAlign=middle;whiteSpace=wrap;rounded=0;" vertex="1" parent="1">
          <mxGeometry x="1674.5" y="449" width="100" height="20" as="geometry" />
        </mxCell>
        <mxCell id="wN9m2C8zXZP7efadYnGl-59" value="" style="endArrow=none;dashed=1;html=1;rounded=0;" edge="1" parent="1">
          <mxGeometry width="50" height="50" relative="1" as="geometry">
            <mxPoint x="1800.5" y="842" as="sourcePoint" />
            <mxPoint x="1800.5" y="602" as="targetPoint" />
          </mxGeometry>
        </mxCell>
        <mxCell id="wN9m2C8zXZP7efadYnGl-60" value="Sending Standard&amp;nbsp;&lt;div&gt;Transaction&amp;nbsp;&lt;span style=&quot;background-color: light-dark(#ffffff, var(--ge-dark-color, #121212)); color: light-dark(rgb(0, 0, 0), rgb(255, 255, 255));&quot;&gt;Request(NFC)&lt;/span&gt;&lt;/div&gt;" style="html=1;verticalAlign=bottom;endArrow=block;edgeStyle=elbowEdgeStyle;elbow=vertical;curved=0;rounded=0;" edge="1" parent="1">
          <mxGeometry x="-0.0066" relative="1" as="geometry">
            <mxPoint x="1955.5" y="629.5" as="sourcePoint" />
            <Array as="points" />
            <mxPoint x="1325.5" y="630" as="targetPoint" />
            <mxPoint as="offset" />
          </mxGeometry>
        </mxCell>
        <mxCell id="wN9m2C8zXZP7efadYnGl-61" value="Response result" style="html=1;verticalAlign=bottom;endArrow=block;edgeStyle=elbowEdgeStyle;elbow=vertical;curved=0;rounded=0;" edge="1" parent="1">
          <mxGeometry x="0.0124" relative="1" as="geometry">
            <mxPoint x="1325.5" y="651" as="sourcePoint" />
            <Array as="points" />
            <mxPoint x="1955.5" y="650.5" as="targetPoint" />
            <mxPoint as="offset" />
          </mxGeometry>
        </mxCell>
        <mxCell id="wN9m2C8zXZP7efadYnGl-62" value="" style="endArrow=none;dashed=1;html=1;rounded=0;entryX=0.5;entryY=1;entryDx=0;entryDy=0;" edge="1" parent="1" source="wN9m2C8zXZP7efadYnGl-73" target="wN9m2C8zXZP7efadYnGl-63">
          <mxGeometry width="50" height="50" relative="1" as="geometry">
            <mxPoint x="1639.5" y="1561" as="sourcePoint" />
            <mxPoint x="1639.5" y="524" as="targetPoint" />
          </mxGeometry>
        </mxCell>
        <mxCell id="wN9m2C8zXZP7efadYnGl-63" value="" style="html=1;points=[];perimeter=orthogonalPerimeter;outlineConnect=0;targetShapes=umlLifeline;portConstraint=eastwest;newEdgeStyle={&quot;edgeStyle&quot;:&quot;elbowEdgeStyle&quot;,&quot;elbow&quot;:&quot;vertical&quot;,&quot;curved&quot;:0,&quot;rounded&quot;:0};" vertex="1" parent="1">
          <mxGeometry x="1635.5" y="663" width="10" height="40" as="geometry" />
        </mxCell>
        <mxCell id="wN9m2C8zXZP7efadYnGl-64" value="Sending Track Key(API)" style="html=1;verticalAlign=bottom;endArrow=block;edgeStyle=elbowEdgeStyle;elbow=vertical;curved=0;rounded=0;" edge="1" parent="1" source="wN9m2C8zXZP7efadYnGl-20" target="wN9m2C8zXZP7efadYnGl-63">
          <mxGeometry x="-0.0004" relative="1" as="geometry">
            <mxPoint x="1795.5" y="686" as="sourcePoint" />
            <Array as="points" />
            <mxPoint x="1609.5" y="686" as="targetPoint" />
            <mxPoint as="offset" />
          </mxGeometry>
        </mxCell>
        <mxCell id="wN9m2C8zXZP7efadYnGl-65" value="Response kts-sig" style="html=1;verticalAlign=bottom;endArrow=block;edgeStyle=elbowEdgeStyle;elbow=vertical;curved=0;rounded=0;" edge="1" parent="1" target="wN9m2C8zXZP7efadYnGl-20">
          <mxGeometry x="0.0124" relative="1" as="geometry">
            <mxPoint x="1644.5" y="811" as="sourcePoint" />
            <Array as="points" />
            <mxPoint x="1794.5" y="811" as="targetPoint" />
            <mxPoint as="offset" />
          </mxGeometry>
        </mxCell>
        <mxCell id="wN9m2C8zXZP7efadYnGl-66" value="Response result" style="html=1;verticalAlign=bottom;endArrow=block;edgeStyle=elbowEdgeStyle;elbow=vertical;curved=0;rounded=0;" edge="1" parent="1" target="wN9m2C8zXZP7efadYnGl-45">
          <mxGeometry x="0.0124" relative="1" as="geometry">
            <mxPoint x="1644.5" y="529" as="sourcePoint" />
            <Array as="points" />
            <mxPoint x="1779.5" y="532" as="targetPoint" />
            <mxPoint as="offset" />
          </mxGeometry>
        </mxCell>
        <mxCell id="wN9m2C8zXZP7efadYnGl-67" value="" style="endArrow=classic;html=1;rounded=0;edgeStyle=elbowEdgeStyle;" edge="1" parent="1">
          <mxGeometry width="50" height="50" relative="1" as="geometry">
            <mxPoint x="1314.5" y="630" as="sourcePoint" />
            <mxPoint x="1314.5" y="650" as="targetPoint" />
            <Array as="points">
              <mxPoint x="1288.5" y="640" />
            </Array>
          </mxGeometry>
        </mxCell>
        <mxCell id="wN9m2C8zXZP7efadYnGl-68" value="If fail back to ** and delete key." style="text;html=1;align=left;verticalAlign=middle;whiteSpace=wrap;rounded=0;" vertex="1" parent="1">
          <mxGeometry x="1202" y="630" width="95" height="20" as="geometry" />
        </mxCell>
        <mxCell id="wN9m2C8zXZP7efadYnGl-69" value="NFC Reset&lt;div&gt;New polling&lt;/div&gt;" style="html=1;verticalAlign=bottom;startArrow=oval;endArrow=block;startSize=8;edgeStyle=elbowEdgeStyle;elbow=vertical;curved=0;rounded=0;" edge="1" parent="1">
          <mxGeometry x="-0.1353" relative="1" as="geometry">
            <mxPoint x="1249.5" y="697" as="sourcePoint" />
            <mxPoint x="1315.5" y="697" as="targetPoint" />
            <mxPoint as="offset" />
          </mxGeometry>
        </mxCell>
        <mxCell id="wN9m2C8zXZP7efadYnGl-70" value="New polling(Include Instance AID, by NFC)" style="html=1;verticalAlign=bottom;endArrow=block;edgeStyle=elbowEdgeStyle;elbow=vertical;curved=0;rounded=0;" edge="1" parent="1">
          <mxGeometry x="-0.0004" relative="1" as="geometry">
            <mxPoint x="1954.5" y="758" as="sourcePoint" />
            <Array as="points">
              <mxPoint x="1469.5" y="758" />
            </Array>
            <mxPoint x="1324.5" y="758" as="targetPoint" />
            <mxPoint as="offset" />
          </mxGeometry>
        </mxCell>
        <mxCell id="wN9m2C8zXZP7efadYnGl-71" value="New polling response success(NFC)" style="html=1;verticalAlign=bottom;endArrow=block;edgeStyle=elbowEdgeStyle;elbow=vertical;curved=0;rounded=0;" edge="1" parent="1">
          <mxGeometry x="0.0141" relative="1" as="geometry">
            <mxPoint x="1324.5" y="781" as="sourcePoint" />
            <Array as="points">
              <mxPoint x="1709.5" y="781" />
            </Array>
            <mxPoint x="1954.5" y="781" as="targetPoint" />
            <mxPoint as="offset" />
          </mxGeometry>
        </mxCell>
        <mxCell id="wN9m2C8zXZP7efadYnGl-72" value="" style="endArrow=none;dashed=1;html=1;rounded=0;entryX=0.5;entryY=1;entryDx=0;entryDy=0;" edge="1" parent="1" target="wN9m2C8zXZP7efadYnGl-73">
          <mxGeometry width="50" height="50" relative="1" as="geometry">
            <mxPoint x="1640.5" y="1322" as="sourcePoint" />
            <mxPoint x="1640.5" y="754" as="targetPoint" />
          </mxGeometry>
        </mxCell>
        <mxCell id="wN9m2C8zXZP7efadYnGl-73" value="" style="html=1;points=[];perimeter=orthogonalPerimeter;outlineConnect=0;targetShapes=umlLifeline;portConstraint=eastwest;newEdgeStyle={&quot;edgeStyle&quot;:&quot;elbowEdgeStyle&quot;,&quot;elbow&quot;:&quot;vertical&quot;,&quot;curved&quot;:0,&quot;rounded&quot;:0};" vertex="1" parent="1">
          <mxGeometry x="1635.5" y="788" width="10" height="40" as="geometry" />
        </mxCell>
        <mxCell id="wN9m2C8zXZP7efadYnGl-74" value="" style="endArrow=none;dashed=1;html=1;rounded=0;" edge="1" parent="1">
          <mxGeometry width="50" height="50" relative="1" as="geometry">
            <mxPoint x="1800.5" y="945" as="sourcePoint" />
            <mxPoint x="1800.5" y="842" as="targetPoint" />
          </mxGeometry>
        </mxCell>
        <mxCell id="wN9m2C8zXZP7efadYnGl-75" value="NFC Reset&lt;div&gt;New polling&lt;/div&gt;" style="html=1;verticalAlign=bottom;startArrow=oval;endArrow=block;startSize=8;edgeStyle=elbowEdgeStyle;elbow=vertical;curved=0;rounded=0;" edge="1" parent="1">
          <mxGeometry x="-0.1353" relative="1" as="geometry">
            <mxPoint x="1249.5" y="1084.5" as="sourcePoint" />
            <mxPoint x="1315.5" y="1084.5" as="targetPoint" />
            <mxPoint as="offset" />
          </mxGeometry>
        </mxCell>
        <mxCell id="wN9m2C8zXZP7efadYnGl-76" value="New polling(NFC)" style="html=1;verticalAlign=bottom;endArrow=block;edgeStyle=elbowEdgeStyle;elbow=vertical;curved=0;rounded=0;" edge="1" parent="1">
          <mxGeometry x="-0.0004" relative="1" as="geometry">
            <mxPoint x="1955.5" y="1096" as="sourcePoint" />
            <Array as="points">
              <mxPoint x="1470.5" y="1096" />
            </Array>
            <mxPoint x="1325.5" y="1096" as="targetPoint" />
            <mxPoint as="offset" />
          </mxGeometry>
        </mxCell>
        <mxCell id="wN9m2C8zXZP7efadYnGl-77" value="New polling response success(NFC)" style="html=1;verticalAlign=bottom;endArrow=block;edgeStyle=elbowEdgeStyle;elbow=vertical;curved=0;rounded=0;" edge="1" parent="1">
          <mxGeometry x="0.0141" relative="1" as="geometry">
            <mxPoint x="1325.5" y="1115" as="sourcePoint" />
            <Array as="points">
              <mxPoint x="1710.5" y="1115" />
            </Array>
            <mxPoint x="1955.5" y="1115" as="targetPoint" />
            <mxPoint as="offset" />
          </mxGeometry>
        </mxCell>
        <mxCell id="wN9m2C8zXZP7efadYnGl-78" value="" style="endArrow=none;dashed=1;html=1;rounded=0;" edge="1" parent="1">
          <mxGeometry width="50" height="50" relative="1" as="geometry">
            <mxPoint x="1799.5" y="1324" as="sourcePoint" />
            <mxPoint x="1799.5" y="1142" as="targetPoint" />
          </mxGeometry>
        </mxCell>
        <mxCell id="wN9m2C8zXZP7efadYnGl-79" value="Sending Standard&amp;nbsp;&lt;div&gt;Transaction&amp;nbsp;&lt;span style=&quot;background-color: light-dark(#ffffff, var(--ge-dark-color, #121212)); color: light-dark(rgb(0, 0, 0), rgb(255, 255, 255));&quot;&gt;Request(BLE)&lt;/span&gt;&lt;/div&gt;" style="html=1;verticalAlign=bottom;endArrow=block;edgeStyle=elbowEdgeStyle;elbow=vertical;curved=0;rounded=0;" edge="1" parent="1" target="wN9m2C8zXZP7efadYnGl-20">
          <mxGeometry x="-0.0004" relative="1" as="geometry">
            <mxPoint x="1955.5" y="1167" as="sourcePoint" />
            <Array as="points" />
            <mxPoint x="1359.5" y="1162" as="targetPoint" />
            <mxPoint as="offset" />
          </mxGeometry>
        </mxCell>
        <mxCell id="wN9m2C8zXZP7efadYnGl-80" value="Response result" style="html=1;verticalAlign=bottom;endArrow=block;edgeStyle=elbowEdgeStyle;elbow=vertical;curved=0;rounded=0;" edge="1" parent="1" source="wN9m2C8zXZP7efadYnGl-20">
          <mxGeometry x="0.0124" relative="1" as="geometry">
            <mxPoint x="1805.5" y="1191.5" as="sourcePoint" />
            <Array as="points" />
            <mxPoint x="1955.5" y="1191.5" as="targetPoint" />
            <mxPoint as="offset" />
          </mxGeometry>
        </mxCell>
        <mxCell id="wN9m2C8zXZP7efadYnGl-81" value="" style="endArrow=classic;html=1;rounded=0;edgeStyle=elbowEdgeStyle;" edge="1" parent="1">
          <mxGeometry width="50" height="50" relative="1" as="geometry">
            <mxPoint x="1965.5" y="1063" as="sourcePoint" />
            <mxPoint x="1965.5" y="1083" as="targetPoint" />
            <Array as="points">
              <mxPoint x="1989.5" y="1073" />
            </Array>
          </mxGeometry>
        </mxCell>
        <mxCell id="wN9m2C8zXZP7efadYnGl-82" value="If Key inactive over twenty seconds, jump to ****." style="text;html=1;align=left;verticalAlign=middle;whiteSpace=wrap;rounded=0;" vertex="1" parent="1">
          <mxGeometry x="2000.5" y="1063" width="111" height="20" as="geometry" />
        </mxCell>
        <mxCell id="wN9m2C8zXZP7efadYnGl-83" value="Optional&amp;nbsp;&lt;div&gt;Immobilizer Tokens&lt;/div&gt;" style="html=1;verticalAlign=bottom;startArrow=oval;endArrow=block;startSize=8;edgeStyle=elbowEdgeStyle;elbow=vertical;curved=0;rounded=0;" edge="1" parent="1">
          <mxGeometry x="-0.1392" relative="1" as="geometry">
            <mxPoint x="2099.5" y="1166" as="sourcePoint" />
            <mxPoint x="1964.5" y="1166" as="targetPoint" />
            <Array as="points" />
            <mxPoint as="offset" />
          </mxGeometry>
        </mxCell>
        <mxCell id="wN9m2C8zXZP7efadYnGl-84" value="Sending password(API)" style="html=1;verticalAlign=bottom;endArrow=block;edgeStyle=elbowEdgeStyle;elbow=vertical;curved=0;rounded=0;" edge="1" parent="1">
          <mxGeometry x="-0.0004" relative="1" as="geometry">
            <mxPoint x="1475.5" y="222" as="sourcePoint" />
            <Array as="points">
              <mxPoint x="1470.5" y="222" />
            </Array>
            <mxPoint x="1325.5" y="222" as="targetPoint" />
            <mxPoint as="offset" />
          </mxGeometry>
        </mxCell>
        <mxCell id="wN9m2C8zXZP7efadYnGl-85" value="Response status" style="html=1;verticalAlign=bottom;endArrow=block;edgeStyle=elbowEdgeStyle;elbow=vertical;curved=0;rounded=0;" edge="1" parent="1">
          <mxGeometry x="-0.0004" relative="1" as="geometry">
            <mxPoint x="1954.5" y="1253" as="sourcePoint" />
            <Array as="points" />
            <mxPoint x="1325.5" y="1253" as="targetPoint" />
            <mxPoint as="offset" />
          </mxGeometry>
        </mxCell>
        <mxCell id="wN9m2C8zXZP7efadYnGl-86" value="Sending pairing status request" style="html=1;verticalAlign=bottom;endArrow=block;edgeStyle=elbowEdgeStyle;elbow=vertical;curved=0;rounded=0;" edge="1" parent="1">
          <mxGeometry x="0.0141" relative="1" as="geometry">
            <mxPoint x="1325.5" y="1233" as="sourcePoint" />
            <Array as="points">
              <mxPoint x="1710.5" y="1233" />
            </Array>
            <mxPoint x="1955.5" y="1233" as="targetPoint" />
            <mxPoint as="offset" />
          </mxGeometry>
        </mxCell>
        <mxCell id="wN9m2C8zXZP7efadYnGl-87" value="" style="endArrow=classic;html=1;rounded=0;edgeStyle=elbowEdgeStyle;" edge="1" parent="1">
          <mxGeometry width="50" height="50" relative="1" as="geometry">
            <mxPoint x="1327.5" y="843" as="sourcePoint" />
            <mxPoint x="1327.5" y="863" as="targetPoint" />
            <Array as="points">
              <mxPoint x="1351.5" y="853" />
            </Array>
          </mxGeometry>
        </mxCell>
        <mxCell id="wN9m2C8zXZP7efadYnGl-88" value="Sending pairing request(API)" style="text;html=1;align=left;verticalAlign=middle;whiteSpace=wrap;rounded=0;" vertex="1" parent="1">
          <mxGeometry x="1354.5" y="842" width="111" height="20" as="geometry" />
        </mxCell>
        <mxCell id="wN9m2C8zXZP7efadYnGl-89" value="" style="endArrow=none;dashed=1;html=1;rounded=0;" edge="1" parent="1">
          <mxGeometry width="50" height="50" relative="1" as="geometry">
            <mxPoint x="1960.5" y="1322" as="sourcePoint" />
            <mxPoint x="1960" y="1273" as="targetPoint" />
          </mxGeometry>
        </mxCell>
        <mxCell id="wN9m2C8zXZP7efadYnGl-90" value="Contactless Transaction" style="text;html=1;align=center;verticalAlign=middle;whiteSpace=wrap;rounded=0;" vertex="1" parent="1">
          <mxGeometry x="1247.5" y="704" width="60" height="30" as="geometry" />
        </mxCell>
        <mxCell id="wN9m2C8zXZP7efadYnGl-91" value="" style="endArrow=none;dashed=1;html=1;rounded=0;entryX=0.5;entryY=1;entryDx=0;entryDy=0;" edge="1" parent="1" source="wN9m2C8zXZP7efadYnGl-105" target="wN9m2C8zXZP7efadYnGl-92">
          <mxGeometry width="50" height="50" relative="1" as="geometry">
            <mxPoint x="2119.5" y="1322" as="sourcePoint" />
            <mxPoint x="2120.5" y="81" as="targetPoint" />
          </mxGeometry>
        </mxCell>
        <mxCell id="wN9m2C8zXZP7efadYnGl-92" value="" style="html=1;points=[];perimeter=orthogonalPerimeter;outlineConnect=0;targetShapes=umlLifeline;portConstraint=eastwest;newEdgeStyle={&quot;edgeStyle&quot;:&quot;elbowEdgeStyle&quot;,&quot;elbow&quot;:&quot;vertical&quot;,&quot;curved&quot;:0,&quot;rounded&quot;:0};" vertex="1" parent="1">
          <mxGeometry x="2115.5" y="167" width="10" height="45" as="geometry" />
        </mxCell>
        <mxCell id="wN9m2C8zXZP7efadYnGl-93" value="Response result" style="html=1;verticalAlign=bottom;endArrow=block;edgeStyle=elbowEdgeStyle;elbow=vertical;curved=0;rounded=0;" edge="1" parent="1">
          <mxGeometry x="-0.0004" relative="1" as="geometry">
            <mxPoint x="1475.5" y="199.5" as="sourcePoint" />
            <Array as="points">
              <mxPoint x="1470.5" y="199.5" />
            </Array>
            <mxPoint x="1325.5" y="199.5" as="targetPoint" />
            <mxPoint as="offset" />
          </mxGeometry>
        </mxCell>
        <mxCell id="wN9m2C8zXZP7efadYnGl-94" value="Sending Pairing request(API)" style="html=1;verticalAlign=bottom;endArrow=block;edgeStyle=elbowEdgeStyle;elbow=vertical;curved=0;rounded=0;" edge="1" parent="1">
          <mxGeometry x="0.0124" relative="1" as="geometry">
            <mxPoint x="1324.5" y="179.64" as="sourcePoint" />
            <Array as="points" />
            <mxPoint x="1474.5" y="179.64" as="targetPoint" />
            <mxPoint as="offset" />
          </mxGeometry>
        </mxCell>
        <mxCell id="wN9m2C8zXZP7efadYnGl-95" value="" style="endArrow=none;html=1;rounded=0;strokeColor=#FF0000;" edge="1" parent="1">
          <mxGeometry width="50" height="50" relative="1" as="geometry">
            <mxPoint x="1198" y="737" as="sourcePoint" />
            <mxPoint x="2278" y="737" as="targetPoint" />
          </mxGeometry>
        </mxCell>
        <mxCell id="wN9m2C8zXZP7efadYnGl-96" value="" style="endArrow=none;html=1;rounded=0;strokeColor=#FF0000;" edge="1" parent="1">
          <mxGeometry width="50" height="50" relative="1" as="geometry">
            <mxPoint x="1198" y="129" as="sourcePoint" />
            <mxPoint x="2278" y="130" as="targetPoint" />
          </mxGeometry>
        </mxCell>
        <mxCell id="wN9m2C8zXZP7efadYnGl-97" value="" style="endArrow=none;html=1;rounded=0;strokeColor=#FF0000;" edge="1" parent="1">
          <mxGeometry width="50" height="50" relative="1" as="geometry">
            <mxPoint x="1198" y="232" as="sourcePoint" />
            <mxPoint x="2278" y="232" as="targetPoint" />
          </mxGeometry>
        </mxCell>
        <mxCell id="wN9m2C8zXZP7efadYnGl-98" value="" style="endArrow=none;html=1;rounded=0;strokeColor=#FF0000;" edge="1" parent="1">
          <mxGeometry width="50" height="50" relative="1" as="geometry">
            <mxPoint x="1197.5" y="556" as="sourcePoint" />
            <mxPoint x="2277.5" y="556" as="targetPoint" />
          </mxGeometry>
        </mxCell>
        <mxCell id="wN9m2C8zXZP7efadYnGl-99" value="&lt;font style=&quot;color: rgb(255, 0, 0);&quot;&gt;Phase0&lt;/font&gt;" style="text;html=1;align=center;verticalAlign=middle;resizable=0;points=[];autosize=1;strokeColor=none;fillColor=none;" vertex="1" parent="1">
          <mxGeometry x="1187.5" y="89" width="60" height="30" as="geometry" />
        </mxCell>
        <mxCell id="wN9m2C8zXZP7efadYnGl-100" value="&lt;font style=&quot;color: rgb(255, 0, 0);&quot;&gt;Phase1&lt;/font&gt;" style="text;html=1;align=center;verticalAlign=middle;resizable=0;points=[];autosize=1;strokeColor=none;fillColor=none;" vertex="1" parent="1">
          <mxGeometry x="1187.5" y="128.5" width="60" height="30" as="geometry" />
        </mxCell>
        <mxCell id="wN9m2C8zXZP7efadYnGl-101" value="&lt;font style=&quot;color: rgb(255, 0, 0);&quot;&gt;Phase2&lt;/font&gt;" style="text;html=1;align=center;verticalAlign=middle;resizable=0;points=[];autosize=1;strokeColor=none;fillColor=none;" vertex="1" parent="1">
          <mxGeometry x="1188.5" y="232" width="60" height="30" as="geometry" />
        </mxCell>
        <mxCell id="wN9m2C8zXZP7efadYnGl-102" value="&lt;font style=&quot;color: rgb(255, 0, 0);&quot;&gt;Phase3&lt;/font&gt;" style="text;html=1;align=center;verticalAlign=middle;resizable=0;points=[];autosize=1;strokeColor=none;fillColor=none;" vertex="1" parent="1">
          <mxGeometry x="1189.5" y="552" width="60" height="30" as="geometry" />
        </mxCell>
        <mxCell id="wN9m2C8zXZP7efadYnGl-103" value="&lt;font style=&quot;color: rgb(255, 0, 0);&quot;&gt;Phase4&lt;/font&gt;" style="text;html=1;align=center;verticalAlign=middle;resizable=0;points=[];autosize=1;strokeColor=none;fillColor=none;" vertex="1" parent="1">
          <mxGeometry x="1190" y="734" width="60" height="30" as="geometry" />
        </mxCell>
        <mxCell id="wN9m2C8zXZP7efadYnGl-104" value="" style="endArrow=none;dashed=1;html=1;rounded=0;entryX=0.5;entryY=1;entryDx=0;entryDy=0;" edge="1" parent="1" target="wN9m2C8zXZP7efadYnGl-105">
          <mxGeometry width="50" height="50" relative="1" as="geometry">
            <mxPoint x="2119.5" y="1322" as="sourcePoint" />
            <mxPoint x="2121" y="212" as="targetPoint" />
          </mxGeometry>
        </mxCell>
        <mxCell id="wN9m2C8zXZP7efadYnGl-105" value="" style="html=1;points=[];perimeter=orthogonalPerimeter;outlineConnect=0;targetShapes=umlLifeline;portConstraint=eastwest;newEdgeStyle={&quot;edgeStyle&quot;:&quot;elbowEdgeStyle&quot;,&quot;elbow&quot;:&quot;vertical&quot;,&quot;curved&quot;:0,&quot;rounded&quot;:0};" vertex="1" parent="1">
          <mxGeometry x="2115" y="980" width="10" height="80" as="geometry" />
        </mxCell>
        <mxCell id="wN9m2C8zXZP7efadYnGl-106" value="Response result" style="html=1;verticalAlign=bottom;endArrow=block;edgeStyle=elbowEdgeStyle;elbow=vertical;curved=0;rounded=0;" edge="1" parent="1" target="wN9m2C8zXZP7efadYnGl-33">
          <mxGeometry x="-0.0004" relative="1" as="geometry">
            <mxPoint x="1956" y="199.5" as="sourcePoint" />
            <Array as="points">
              <mxPoint x="1951" y="199.5" />
            </Array>
            <mxPoint x="1806" y="199.5" as="targetPoint" />
            <mxPoint as="offset" />
          </mxGeometry>
        </mxCell>
        <mxCell id="wN9m2C8zXZP7efadYnGl-107" value="&lt;font style=&quot;font-size: 11px;&quot;&gt;Through VOS&lt;/font&gt;" style="text;html=1;align=center;verticalAlign=middle;resizable=0;points=[];autosize=1;strokeColor=none;fillColor=none;" vertex="1" parent="1">
          <mxGeometry x="1426" y="679" width="90" height="30" as="geometry" />
        </mxCell>
        <mxCell id="wN9m2C8zXZP7efadYnGl-108" value="&lt;font style=&quot;font-size: 11px;&quot;&gt;Through VOS&lt;/font&gt;" style="text;html=1;align=center;verticalAlign=middle;resizable=0;points=[];autosize=1;strokeColor=none;fillColor=none;" vertex="1" parent="1">
          <mxGeometry x="1426" y="805" width="90" height="30" as="geometry" />
        </mxCell>
        <mxCell id="wN9m2C8zXZP7efadYnGl-109" value="&lt;font style=&quot;font-size: 11px;&quot;&gt;Instance CA (API)&lt;/font&gt;" style="text;html=1;align=center;verticalAlign=middle;resizable=0;points=[];autosize=1;strokeColor=none;fillColor=none;" vertex="1" parent="1">
          <mxGeometry x="1348.5" y="84.5" width="110" height="30" as="geometry" />
        </mxCell>
        <mxCell id="wN9m2C8zXZP7efadYnGl-110" value="" style="endArrow=classic;html=1;rounded=0;" edge="1" parent="1">
          <mxGeometry width="50" height="50" relative="1" as="geometry">
            <mxPoint x="1325.5" y="108" as="sourcePoint" />
            <mxPoint x="1475.5" y="108" as="targetPoint" />
          </mxGeometry>
        </mxCell>
        <mxCell id="wN9m2C8zXZP7efadYnGl-111" value="Response result" style="html=1;verticalAlign=bottom;endArrow=block;edgeStyle=elbowEdgeStyle;elbow=vertical;curved=0;rounded=0;" edge="1" parent="1">
          <mxGeometry x="-0.0004" relative="1" as="geometry">
            <mxPoint x="1475" y="124" as="sourcePoint" />
            <Array as="points">
              <mxPoint x="1470" y="124" />
            </Array>
            <mxPoint x="1325" y="124" as="targetPoint" />
            <mxPoint as="offset" />
          </mxGeometry>
        </mxCell>
      </root>
    </mxGraphModel>
  </diagram>
</mxfile>
